<svg width="36" height="36" viewBox="0 0 36 36" fill="none" xmlns="http://www.w3.org/2000/svg">
<path d="M31.3819 9.62156L29.1319 5.12156C29.0383 4.93466 28.8946 4.7775 28.7168 4.66771C28.5389 4.55793 28.334 4.49985 28.125 4.5H7.875C7.666 4.49985 7.46109 4.55793 7.28324 4.66771C7.1054 4.7775 6.96165 4.93466 6.86812 5.12156L4.61813 9.62156C4.54058 9.77807 4.50016 9.95034 4.5 10.125V29.25C4.5 29.8467 4.73705 30.419 5.15901 30.841C5.58097 31.2629 6.15326 31.5 6.75 31.5H29.25C29.8467 31.5 30.419 31.2629 30.841 30.841C31.2629 30.419 31.5 29.8467 31.5 29.25V10.125C31.4998 9.95034 31.4594 9.77807 31.3819 9.62156ZM8.56969 6.75H27.4303L28.5553 9H7.44469L8.56969 6.75ZM29.25 29.25H6.75V11.25H29.25V29.25ZM23.2959 20.5791C23.4005 20.6835 23.4835 20.8076 23.5401 20.9442C23.5967 21.0808 23.6259 21.2272 23.6259 21.375C23.6259 21.5228 23.5967 21.6692 23.5401 21.8058C23.4835 21.9424 23.4005 22.0665 23.2959 22.1709L18.7959 26.6709C18.6915 26.7755 18.5674 26.8585 18.4308 26.9151C18.2942 26.9717 18.1478 27.0009 18 27.0009C17.8522 27.0009 17.7058 26.9717 17.5692 26.9151C17.4326 26.8585 17.3085 26.7755 17.2041 26.6709L12.7041 22.1709C12.493 21.9598 12.3744 21.6735 12.3744 21.375C12.3744 21.0765 12.493 20.7902 12.7041 20.5791C12.9152 20.368 13.2015 20.2494 13.5 20.2494C13.7985 20.2494 14.0848 20.368 14.2959 20.5791L16.875 23.1595V14.625C16.875 14.3266 16.9935 14.0405 17.2045 13.8295C17.4155 13.6185 17.7016 13.5 18 13.5C18.2984 13.5 18.5845 13.6185 18.7955 13.8295C19.0065 14.0405 19.125 14.3266 19.125 14.625V23.1595L21.7041 20.5791C21.8085 20.4745 21.9326 20.3915 22.0692 20.3349C22.2058 20.2783 22.3522 20.2491 22.5 20.2491C22.6478 20.2491 22.7942 20.2783 22.9308 20.3349C23.0674 20.3915 23.1915 20.4745 23.2959 20.5791Z" fill="#191919"/>
</svg>
