<svg width="25" height="25" viewBox="0 0 25 25" fill="none" xmlns="http://www.w3.org/2000/svg">
<path d="M5.66812 19.1366C4.80562 18.2741 5.3775 16.4619 4.93875 15.4006C4.48313 14.3047 2.8125 13.4141 2.8125 12.2422C2.8125 11.0703 4.48313 10.1797 4.93875 9.08375C5.3775 8.02344 4.80562 6.21031 5.66812 5.34781C6.53062 4.48531 8.34375 5.05719 9.40406 4.61844C10.5047 4.16281 11.3906 2.49219 12.5625 2.49219C13.7344 2.49219 14.625 4.16281 15.7209 4.61844C16.7822 5.05719 18.5944 4.48531 19.4569 5.34781C20.3194 6.21031 19.7475 8.0225 20.1863 9.08375C20.6419 10.1844 22.3125 11.0703 22.3125 12.2422C22.3125 13.4141 20.6419 14.3047 20.1863 15.4006C19.7475 16.4619 20.3194 18.2741 19.4569 19.1366C18.5944 19.9991 16.7822 19.4272 15.7209 19.8659C14.625 20.3216 13.7344 21.9922 12.5625 21.9922C11.3906 21.9922 10.5 20.3216 9.40406 19.8659C8.34375 19.4272 6.53062 19.9991 5.66812 19.1366Z" stroke="#191919" stroke-width="1.5" stroke-linecap="round" stroke-linejoin="round"/>
<path d="M8.8125 12.9922L11.0625 15.2422L16.3125 9.99219" stroke="#191919" stroke-width="1.5" stroke-linecap="round" stroke-linejoin="round"/>
</svg>
