<svg width="15" height="32" viewBox="0 0 15 32" fill="none" xmlns="http://www.w3.org/2000/svg">
<path id="arrow" fill-rule="evenodd" clip-rule="evenodd" d="M8.25012 29.1895L13.7198 23.7197L13.7765 23.668C14.0711 23.4277 14.5058 23.4451 14.7804 23.7197C15.055 23.9943 15.0725 24.4291 14.8321 24.7236L14.7804 24.7803L8.03039 31.5303C7.75579 31.8049 7.32107 31.8223 7.02648 31.582L6.96984 31.5303L0.219844 24.7803L0.168086 24.7236C-0.0722232 24.4291 -0.0547602 23.9943 0.219844 23.7197C0.494447 23.4451 0.929169 23.4277 1.22375 23.668L1.28039 23.7197L6.75012 29.1895L6.75012 0.75C6.75012 0.335786 7.0859 0 7.50012 0C7.91433 0 8.25012 0.335786 8.25012 0.75L8.25012 29.1895Z" fill="#191919"/>
</svg>
