<svg width="26" height="26" viewBox="0 0 26 26" fill="none" xmlns="http://www.w3.org/2000/svg">
<path id="Vector" d="M7.74794 0.409003C6.39863 0.472664 5.47719 0.687994 4.67167 1.00452C3.83799 1.32942 3.13137 1.7654 2.42831 2.471C1.72525 3.17659 1.29231 3.8837 0.969691 4.71865C0.657473 5.52594 0.445946 6.44813 0.386343 7.79819C0.32674 9.14825 0.313551 9.58221 0.320146 13.026C0.32674 16.4697 0.341958 16.9014 0.407394 18.2542C0.471816 19.6033 0.686387 20.5245 1.00292 21.3302C1.32832 22.1639 1.7638 22.8703 2.46965 23.5736C3.17551 24.2769 3.88212 24.7088 4.71909 25.0319C5.52564 25.3437 6.44809 25.5562 7.7979 25.6153C9.14772 25.6744 9.58218 25.6881 13.025 25.6815C16.4677 25.6749 16.9012 25.6597 18.2538 25.5955C19.6064 25.5313 20.5227 25.3152 21.3288 25.0002C22.1625 24.6741 22.8693 24.2394 23.5721 23.5333C24.2749 22.8272 24.7076 22.1195 25.03 21.2841C25.3425 20.4775 25.5547 19.5551 25.6133 18.2063C25.6724 16.8527 25.6864 16.4205 25.6798 12.9773C25.6732 9.53402 25.6577 9.10235 25.5936 7.75C25.5294 6.39766 25.3146 5.47927 24.9983 4.67299C24.6724 3.83932 24.2374 3.13347 23.5318 2.42966C22.8262 1.72584 22.1181 1.2934 21.2829 0.971803C20.4758 0.659587 19.5539 0.446794 18.2041 0.388459C16.8542 0.330125 16.4198 0.315161 12.9757 0.321755C9.53171 0.328349 9.10054 0.34306 7.74794 0.409003ZM7.89606 23.3339C6.65961 23.2801 5.98826 23.0747 5.54085 22.9027C4.94837 22.6745 4.52634 22.3985 4.08046 21.957C3.63457 21.5154 3.36065 21.0918 3.12934 20.5006C2.95561 20.0532 2.74636 19.3826 2.68854 18.1462C2.62564 16.8098 2.61245 16.4086 2.60509 13.0229C2.59774 9.63725 2.61067 9.23652 2.66926 7.89964C2.72202 6.66422 2.92872 5.99211 3.10043 5.54496C3.3287 4.95173 3.60363 4.53045 4.04622 4.08483C4.4888 3.63921 4.91109 3.36478 5.50281 3.13347C5.9497 2.95898 6.6203 2.75151 7.85624 2.69267C9.19362 2.62926 9.59436 2.61658 12.9795 2.60922C16.3647 2.60187 16.7665 2.61455 18.1044 2.67339C19.3398 2.72716 20.0122 2.93184 20.4588 3.10456C21.0516 3.33282 21.4733 3.607 21.919 4.05034C22.3646 4.49368 22.6393 4.91445 22.8706 5.50743C23.0453 5.95305 23.2528 6.62339 23.3111 7.86008C23.3748 9.19746 23.3893 9.59844 23.3953 12.9834C23.4014 16.3683 23.3895 16.7703 23.3309 18.1066C23.2769 19.3431 23.072 20.0147 22.8998 20.4626C22.6715 21.0548 22.3963 21.4771 21.9535 21.9225C21.5106 22.3678 21.0888 22.6423 20.4969 22.8736C20.0505 23.0478 19.3791 23.2558 18.1442 23.3146C16.8068 23.3775 16.4061 23.3907 13.0196 23.3981C9.63316 23.4054 9.2337 23.3917 7.89631 23.3339M18.2342 6.22393C18.2347 6.52492 18.3245 6.81901 18.4922 7.069C18.6598 7.31898 18.8978 7.51363 19.1761 7.62833C19.4544 7.74303 19.7605 7.77263 20.0556 7.71338C20.3507 7.65413 20.6216 7.50869 20.834 7.29546C21.0465 7.08224 21.1909 6.81079 21.2491 6.51547C21.3073 6.22015 21.2766 5.9142 21.1608 5.63634C21.0451 5.35847 20.8496 5.12117 20.599 4.95443C20.3484 4.7877 20.054 4.69902 19.753 4.69962C19.3495 4.70043 18.9628 4.86146 18.678 5.14731C18.3932 5.43316 18.2336 5.82042 18.2342 6.22393ZM6.48867 13.0143C6.49577 16.6107 9.41656 19.5196 13.0123 19.5127C16.608 19.5059 19.5189 16.5854 19.512 12.9889C19.5052 9.3925 16.5836 6.48288 12.9874 6.48998C9.3912 6.49708 6.48182 9.41837 6.48867 13.0143ZM8.77285 13.0097C8.7712 12.1737 9.01751 11.3559 9.48062 10.6598C9.94374 9.96374 10.6029 9.42062 11.3747 9.09915C12.1465 8.77767 12.9962 8.69228 13.8166 8.85376C14.6369 9.01525 15.3909 9.41636 15.9833 10.0064C16.5756 10.5964 16.9797 11.3488 17.1445 12.1685C17.3092 12.9881 17.2272 13.8383 16.9087 14.6113C16.5903 15.3844 16.0498 16.0456 15.3556 16.5115C14.6613 16.9774 13.8445 17.2269 13.0085 17.2286C12.4533 17.2297 11.9034 17.1215 11.3901 16.9101C10.8767 16.6987 10.4101 16.3883 10.0168 15.9965C9.62342 15.6048 9.31113 15.1393 9.0977 14.6269C8.88427 14.1144 8.77388 13.5649 8.77285 13.0097Z" fill="#191919"/>
</svg>
