<svg xmlns="http://www.w3.org/2000/svg" width="8" height="12" viewBox="0 0 8 12" fill="none" aria-hidden="true">
      <path d="M6.89093 10.7043C6.93797 10.7513 6.97529 10.8072 7.00075 10.8686C7.0262 10.9301 7.03931 10.996 7.03931 11.0625C7.03931 11.129 7.0262 11.1949 7.00075 11.2564C6.97529 11.3178 6.93797 11.3737 6.89093 11.4207C6.84389 11.4678 6.78804 11.5051 6.72658 11.5305C6.66512 11.556 6.59924 11.5691 6.53271 11.5691C6.46619 11.5691 6.40031 11.556 6.33885 11.5305C6.27739 11.5051 6.22154 11.4678 6.1745 11.4207L1.11138 6.35761C1.06431 6.31058 1.02697 6.25474 1.00149 6.19328C0.976006 6.13181 0.962891 6.06593 0.962891 5.99939C0.962891 5.93285 0.976006 5.86697 1.00149 5.8055C1.02697 5.74404 1.06431 5.6882 1.11138 5.64118L6.1745 0.578065C6.2695 0.48306 6.39836 0.429687 6.53271 0.429688C6.66707 0.429688 6.79593 0.48306 6.89093 0.578065C6.98593 0.67307 7.03931 0.801923 7.03931 0.93628C7.03931 1.07064 6.98593 1.19949 6.89093 1.2945L2.1854 5.99939L6.89093 10.7043Z" fill="#000000"/>
    </svg>