<svg width="26" height="26" viewBox="0 0 26 26" fill="none" xmlns="http://www.w3.org/2000/svg">
<g id="Logo">
<path id="Subtract" d="M23.7495 0.300781C24.7783 0.300781 25.6145 1.11668 25.6147 2.11914V23.8779C25.6145 24.8837 24.7783 25.6963 23.7495 25.6963H2.24951C1.22093 25.6961 0.385453 24.8803 0.385254 23.8779V2.11914C0.385456 1.1168 1.22093 0.300984 2.24951 0.300781H23.7495ZM4.22412 21.5625H8.03369V10.0938H4.22412V21.5625ZM17.3833 9.82422C15.3639 9.82431 14.4585 10.9355 13.9507 11.7168V10.0938H10.1411C10.1909 11.166 10.1414 21.4929 10.1411 21.5625H13.9507V15.1572C13.9507 14.8142 13.9735 14.4707 14.0767 14.2275C14.3531 13.5414 14.9797 12.832 16.0317 12.832C17.4101 12.8321 17.9633 13.8847 17.9634 15.4268V21.5625H21.772V14.9873C21.7719 11.4632 19.8905 9.82422 17.3833 9.82422ZM13.9507 11.7568H13.9243C13.9328 11.7436 13.9419 11.7303 13.9507 11.7168V11.7568ZM6.15283 4.56445C4.84758 4.56445 3.99854 5.421 3.99854 6.54688C3.9987 7.67245 4.82382 8.52812 6.10205 8.52832H6.12939C7.45766 8.5282 8.28352 7.6492 8.28369 6.54688C8.26039 5.42111 7.45785 4.56463 6.15283 4.56445Z" fill="#191919"/>
</g>
</svg>
