<svg width="32" height="33" viewBox="0 0 32 33" fill="none" xmlns="http://www.w3.org/2000/svg">
<path d="M19.8941 17.049L14.8257 22.1121C14.7786 22.1592 14.7227 22.1965 14.6612 22.2219C14.5996 22.2474 14.5337 22.2605 14.4671 22.2605C14.4005 22.2605 14.3345 22.2474 14.273 22.2219C14.2115 22.1965 14.1556 22.1592 14.1085 22.1121C14.0614 22.0651 14.024 22.0092 13.9986 21.9478C13.9731 21.8863 13.96 21.8204 13.96 21.7539C13.96 21.6874 13.9731 21.6215 13.9986 21.56C14.024 21.4986 14.0614 21.4427 14.1085 21.3957L18.819 16.6908L14.1085 11.9859C14.0134 11.8909 13.96 11.762 13.96 11.6277C13.96 11.4933 14.0134 11.3645 14.1085 11.2695C14.2036 11.1745 14.3326 11.1211 14.4671 11.1211C14.6016 11.1211 14.7306 11.1745 14.8257 11.2695L19.8941 16.3326C19.9413 16.3796 19.9786 16.4354 20.0041 16.4969C20.0297 16.5584 20.0428 16.6243 20.0428 16.6908C20.0428 16.7573 20.0297 16.8232 20.0041 16.8847C19.9786 16.9462 19.9413 17.002 19.8941 17.049Z" fill="#282828"/>
</svg>
