<svg xmlns="http://www.w3.org/2000/svg" width="8" height="12" viewBox="0 0 8 12" fill="none" aria-hidden="true">
      <path d="M6.89413 6.35761L1.82568 11.4207C1.77859 11.4678 1.72268 11.5051 1.66116 11.5305C1.59963 11.556 1.53368 11.5691 1.46709 11.5691C1.40049 11.5691 1.33455 11.556 1.27302 11.5305C1.21149 11.5051 1.15559 11.4678 1.10849 11.4207C1.0614 11.3737 1.02405 11.3178 0.998563 11.2564C0.973078 11.1949 0.959961 11.129 0.959961 11.0625C0.959961 10.996 0.973078 10.9301 0.998563 10.8686C1.02405 10.8072 1.0614 10.7513 1.10849 10.7043L5.81898 5.99939L1.10849 1.2945C1.01339 1.19949 0.959961 1.07064 0.959961 0.93628C0.959961 0.801923 1.01339 0.67307 1.10849 0.578065C1.2036 0.48306 1.33259 0.429688 1.46709 0.429688C1.60159 0.429687 1.73058 0.48306 1.82568 0.578065L6.89413 5.64118C6.94125 5.6882 6.97864 5.74404 7.00414 5.8055C7.02965 5.86697 7.04278 5.93285 7.04278 5.99939C7.04278 6.06593 7.02965 6.13181 7.00414 6.19328C6.97864 6.25474 6.94125 6.31058 6.89413 6.35761Z" fill="#3A3A3A"/>
    </svg>